<svg width="25" height="25" viewBox="0 0 25 25" fill="none" xmlns="http://www.w3.org/2000/svg">
<g clip-path="url(#clip0_55_52)">
<path d="M24.8584 20.1241L16.0901 11.3558C16.0737 11.3395 16.0563 11.3243 16.0378 11.3104L15.9437 11.2399C15.7494 11.0941 15.4773 11.1135 15.3055 11.2853L15.2611 11.3296L12.7956 7.44319C12.7073 7.30412 12.5549 7.21891 12.3903 7.21652C12.3879 7.21652 12.3855 7.21647 12.3832 7.21647C12.2212 7.21647 12.0694 7.2969 11.9786 7.43138L11.2323 8.53595L8.52354 4.02142C8.42749 3.86135 8.24866 3.76974 8.06257 3.7862C7.87657 3.80236 7.71606 3.92312 7.64906 4.0974L2.24228 18.1549C2.23584 18.1717 2.23052 18.1887 2.22602 18.2057L0.143015 20.2887C-0.0476718 20.4794 -0.0476718 20.7886 0.143015 20.9793C0.333751 21.17 0.642855 21.17 0.83364 20.9793L0.882716 20.9302L6.85887 14.954L9.5927 17.6878C9.5928 17.688 9.59295 17.6881 9.59305 17.6882C9.59314 17.6883 9.59329 17.6884 9.59344 17.6885L11.0774 19.1725L12.7955 20.8906C12.9137 21.0088 13.0261 21.1517 13.1935 21.1983C13.4818 21.2785 13.7809 21.0714 13.8096 20.7748C13.8235 20.6306 13.7712 20.4851 13.6688 20.3827L10.629 17.3429L15.6625 12.3094L24.1679 20.8147C24.3719 21.0187 24.7177 20.9978 24.8964 20.7721C25.0482 20.5804 25.0312 20.2969 24.8584 20.1241ZM9.93853 16.6522L7.20435 13.9181C7.1126 13.8266 6.98842 13.7751 6.85887 13.7751C6.72937 13.7751 6.60519 13.8266 6.51358 13.9181L3.92106 16.5106L7.0478 8.38115H8.05778C8.32743 8.38115 8.5461 8.16253 8.5461 7.89284C8.5461 7.87697 8.54522 7.86129 8.5437 7.84581C8.52002 7.59819 8.31156 7.40452 8.05778 7.40452H7.42346L8.2012 5.3824L9.42013 7.41394C9.21104 7.45526 9.04999 7.63002 9.02933 7.84581C9.02787 7.86129 9.02699 7.87697 9.02699 7.89284C9.02699 8.16253 9.24566 8.38115 9.51531 8.38115H10.0005L10.7891 9.69555C10.875 9.83863 11.028 9.92794 11.1948 9.93248C11.3603 9.93722 11.5191 9.85596 11.6125 9.71772L12.3704 8.59601L14.5536 12.0372L9.93853 16.6522Z" fill="#9356A0"/>
<path d="M11.6811 10.3204C11.451 10.4611 11.3786 10.7617 11.5193 10.9918L12.4749 12.5544C12.567 12.7049 12.7275 12.788 12.892 12.788C12.9788 12.788 13.0667 12.7648 13.1462 12.7162C13.3763 12.5755 13.4487 12.2749 13.3081 12.0448L12.3525 10.4823C12.2118 10.2522 11.9113 10.1798 11.6811 10.3204Z" fill="#9356A0"/>
<path d="M18.3533 16.102C18.1608 15.9131 17.8517 15.9159 17.6627 16.1084C17.4738 16.3008 17.4766 16.61 17.669 16.799L21.3877 20.4496C21.4828 20.5429 21.6063 20.5894 21.7298 20.5894C21.8563 20.5894 21.9827 20.5406 22.0783 20.4432C22.2672 20.2507 22.2644 19.9416 22.0719 19.7526L18.3533 16.102Z" fill="#9356A0"/>
<path d="M16.1147 13.9045C15.9222 13.7156 15.6131 13.7184 15.4242 13.9109C15.2352 14.1033 15.2381 14.4125 15.4305 14.6015L16.5047 15.656C16.5998 15.7493 16.7233 15.7958 16.8468 15.7958C16.9733 15.7958 17.0997 15.747 17.1953 15.6496C17.3842 15.4571 17.3814 15.148 17.1889 14.959L16.1147 13.9045Z" fill="#9356A0"/>
<path d="M9.42492 18.3171C9.23243 18.1282 8.92332 18.131 8.73434 18.3235C8.54542 18.5159 8.54825 18.8251 8.74069 19.0141L10.4985 20.7397C10.5936 20.833 10.7171 20.8796 10.8406 20.8796C10.9671 20.8796 11.0935 20.8307 11.1891 20.7333C11.378 20.5409 11.3752 20.2317 11.1828 20.0427L9.42492 18.3171Z" fill="#9356A0"/>
<path d="M7.61596 16.5413C7.42347 16.3524 7.11427 16.3553 6.92538 16.5477C6.73646 16.7402 6.73929 17.0493 6.93173 17.2383L7.57489 17.8697C7.66997 17.963 7.79351 18.0095 7.91696 18.0095C8.04348 18.0095 8.16991 17.9607 8.26547 17.8633C8.4544 17.6709 8.45157 17.3617 8.25912 17.1727L7.61596 16.5413Z" fill="#9356A0"/>
</g>
<defs>
<clipPath id="clip0_55_52">
<rect width="25" height="25" fill="white"/>
</clipPath>
</defs>
</svg>
