<svg width="45" height="45" viewBox="0 0 45 45" fill="none" xmlns="http://www.w3.org/2000/svg">
<rect width="45" height="45" rx="22.5" fill="#2C1B47"/>
<g clip-path="url(#clip0_55_14)">
<path d="M20.0225 35.0228C19.7286 35.0228 19.4382 34.9591 19.172 34.836C18.9058 34.7129 18.6703 34.5336 18.4821 34.3107L11.6966 26.27C11.509 26.073 11.3641 25.8403 11.271 25.586C11.1779 25.3318 11.1384 25.0614 11.1551 24.7916C11.1717 24.5217 11.2441 24.2581 11.3678 24.0168C11.4915 23.7756 11.6639 23.5619 11.8744 23.3889C12.0849 23.2159 12.329 23.0872 12.5917 23.0107C12.8544 22.9342 13.1302 22.9116 13.4021 22.9443C13.674 22.9769 13.9363 23.0641 14.1728 23.2005C14.4093 23.3368 14.6151 23.5195 14.7774 23.7373L19.7203 29.5937L30.4113 11.3163C30.6777 10.8613 31.1162 10.5293 31.6305 10.3934C32.1448 10.2576 32.6928 10.3289 33.1538 10.5918C33.6148 10.8546 33.9512 11.2875 34.0889 11.7951C34.2265 12.3028 34.1542 12.8436 33.8879 13.2986L21.7579 34.0297C21.5963 34.3058 21.3696 34.5394 21.097 34.7106C20.8244 34.8818 20.514 34.9856 20.1921 35.0131C20.1351 35.0185 20.0778 35.0211 20.0206 35.0208L20.0225 35.0228Z" fill="#9356A0"/>
</g>
<defs>
<clipPath id="clip0_55_14">
<rect width="26.4375" height="26.4375" fill="white" transform="translate(9.56201 9.56201)"/>
</clipPath>
</defs>
</svg>
