<svg width="25" height="25" viewBox="0 0 25 25" fill="none" xmlns="http://www.w3.org/2000/svg">
<path d="M18.1797 1.81326C18.0954 1.76326 17.9938 1.73357 17.8844 1.73357C17.6797 1.73357 17.4993 1.83904 17.3946 1.99919L17.393 2.00154L12.9594 8.85466C12.8985 8.84529 12.8375 8.83904 12.7758 8.83357C12.7094 8.82732 12.6438 8.82419 12.5774 8.82185C12.5508 8.82107 12.5258 8.81404 12.4985 8.81404C12.4711 8.81404 12.4469 8.82107 12.4196 8.82185C12.3532 8.82341 12.2883 8.82654 12.2219 8.83357C12.1618 8.83904 12.1016 8.84451 12.0422 8.85388L7.6063 2.00154C7.50083 1.83904 7.32036 1.73279 7.11489 1.73279C7.00552 1.73279 6.90317 1.76248 6.81646 1.81482L6.8188 1.81326C3.36099 3.69841 1.05396 7.30701 1.05396 11.4547C1.05396 11.5719 1.05552 11.689 1.05942 11.8062L1.05864 11.789C1.05864 11.7898 1.05864 11.7906 1.05864 11.7914C1.05864 12.1047 1.30474 12.3601 1.61333 12.3765H1.61489L9.76958 12.789C9.79224 12.8469 9.81489 12.9039 9.84067 12.9601C9.86724 13.0187 9.89614 13.075 9.92661 13.1304C9.93989 13.1554 9.94771 13.1828 9.96177 13.2078C9.97896 13.2367 10.0024 13.2601 10.0196 13.289C10.0516 13.3406 10.0836 13.3914 10.1188 13.4406C10.1532 13.489 10.1875 13.5367 10.225 13.5828L6.50708 20.8515C6.46646 20.9289 6.44302 21.0211 6.44302 21.1179C6.44302 21.3344 6.56099 21.5234 6.73599 21.625L6.73911 21.6265C8.38364 22.6289 10.3672 23.2336 12.4899 23.264H12.4985C14.6297 23.2336 16.6125 22.6289 18.3086 21.5976L18.2579 21.6265C18.436 21.5242 18.554 21.3351 18.554 21.1179C18.554 21.0203 18.5305 20.9289 18.4883 20.8484L18.4899 20.8515L14.7704 13.5859C14.8102 13.5367 14.8469 13.4859 14.8836 13.4336C14.9149 13.3898 14.943 13.3445 14.9719 13.2984C14.9922 13.2664 15.018 13.2406 15.0368 13.2078C15.0516 13.1828 15.0579 13.1554 15.0719 13.1297C15.1032 13.0711 15.1329 13.0125 15.1602 12.9523C15.1844 12.8992 15.2055 12.8461 15.2266 12.7914L23.3836 12.3765C23.6938 12.3601 23.9391 12.1039 23.9391 11.7914C23.9391 11.7906 23.9391 11.7898 23.9391 11.789C23.9422 11.6898 23.9438 11.5726 23.9438 11.4554C23.9438 7.30779 21.6368 3.69841 18.236 1.84216L18.179 1.81326H18.1797ZM13.068 10.1C13.1829 10.1437 13.2813 10.1929 13.3735 10.2508L13.3665 10.2469C13.7547 10.4726 14.0422 10.8367 14.1625 11.2711L14.1657 11.2828C14.186 11.3508 14.2032 11.4336 14.2141 11.5179L14.2149 11.5265C14.2243 11.5914 14.229 11.6672 14.229 11.7429C14.229 11.8187 14.2235 11.8945 14.2141 11.9679L14.2149 11.9594C14.2032 12.0523 14.1852 12.1344 14.1625 12.2148L14.1657 12.2023C14.104 12.4297 14.0024 12.6273 13.8688 12.7984L13.8711 12.7945C13.7782 12.9148 13.6743 13.0195 13.5579 13.1094L13.554 13.1125C13.5008 13.1539 13.4407 13.1953 13.3774 13.2328L13.3696 13.2375C13.1829 13.3469 12.9633 13.4242 12.7297 13.4554L12.7211 13.4562C12.6532 13.4656 12.575 13.4711 12.4954 13.4711C12.3336 13.4703 12.1774 13.4469 12.029 13.4047L12.0415 13.4078C11.8844 13.364 11.7477 13.3054 11.6211 13.2312L11.6297 13.2359C11.5618 13.1953 11.504 13.1562 11.4485 13.1133L11.4524 13.1164C11.3883 13.0672 11.3321 13.0179 11.279 12.964C11.0188 12.7031 10.8415 12.3601 10.7899 11.9765L10.7891 11.9679C10.7797 11.9008 10.7743 11.8226 10.7743 11.7429C10.7758 11.4219 10.8625 11.1219 11.0141 10.8633L11.0094 10.8719C11.05 10.8039 11.0891 10.7461 11.1321 10.6906L11.129 10.6945C11.3375 10.432 11.6102 10.2281 11.9227 10.1047L11.9352 10.1C12.1024 10.0273 12.2977 9.98513 12.5024 9.98513C12.7071 9.98513 12.9024 10.0273 13.0797 10.1039L13.0704 10.1H13.068ZM6.93364 3.11638L10.9243 9.28123C10.8836 9.30701 10.8446 9.33357 10.8063 9.36169C10.7493 9.40232 10.6938 9.44451 10.6399 9.48904C10.5875 9.53201 10.5383 9.57654 10.4891 9.62341C10.4508 9.65935 10.4141 9.69685 10.3782 9.73513C10.3336 9.78279 10.2899 9.83044 10.2477 9.88123C10.2024 9.93591 10.1594 9.99138 10.1188 10.0492C10.0844 10.0976 10.0532 10.1476 10.0219 10.1976C10.004 10.2265 9.98052 10.25 9.96411 10.2789C9.95005 10.3031 9.9438 10.3289 9.93052 10.3531C9.89927 10.4109 9.86958 10.4687 9.84224 10.5281C9.81489 10.5875 9.79146 10.6476 9.76802 10.7094C9.7438 10.7734 9.72192 10.8367 9.70161 10.9015C9.69302 10.9297 9.67817 10.9554 9.67036 10.9836C9.66333 11.0101 9.66333 11.0375 9.65708 11.064C9.64224 11.1258 9.62974 11.1883 9.61958 11.2515C9.60786 11.3219 9.5977 11.3922 9.59067 11.4633C9.58599 11.5109 9.57974 11.5578 9.57739 11.6054L2.24614 11.2344C2.28911 7.79373 4.13989 4.79529 6.89067 3.13982L6.93364 3.1156V3.11638ZM7.81177 20.8773L11.1555 14.3414C11.1969 14.3625 11.2407 14.3804 11.2829 14.4C11.3555 14.4328 11.4493 14.4687 11.5454 14.5L11.5657 14.5054C11.6118 14.5211 11.654 14.5429 11.7008 14.5562C11.7399 14.5672 11.7782 14.5742 11.8172 14.5836C12.0008 14.6304 12.2125 14.6601 12.4305 14.6656H12.4344C12.4547 14.6664 12.475 14.6734 12.4954 14.6734L12.5 14.6726L12.5047 14.6734C12.5266 14.6734 12.5485 14.6648 12.5704 14.6648C12.7899 14.6594 12.9993 14.6297 13.2 14.5797L13.1797 14.5836C13.2196 14.5742 13.2594 14.5672 13.2985 14.5554C13.3477 14.5414 13.3922 14.5187 13.4407 14.5023C13.5532 14.4664 13.643 14.432 13.7305 14.3937L13.7118 14.4008C13.7555 14.3812 13.7993 14.3633 13.8415 14.3422L17.1868 20.8765C15.8376 21.6469 14.2211 22.1008 12.4993 22.1008C10.7774 22.1008 9.16099 21.6469 7.76411 20.8515L7.81177 20.8773ZM15.4204 11.6086C15.418 11.5609 15.4149 11.514 15.4102 11.4664C15.4032 11.3922 15.393 11.3195 15.3797 11.2469C15.3688 11.1851 15.3571 11.1242 15.3422 11.064C15.3297 11.0125 15.3165 10.9617 15.3016 10.9109C15.2805 10.8398 15.2563 10.7703 15.2297 10.7008C15.2079 10.6437 15.186 10.5883 15.161 10.5336C15.1368 10.4797 15.1094 10.4273 15.0813 10.3742C15.0649 10.3429 15.0555 10.3094 15.0383 10.2789C15.0196 10.2461 14.993 10.2195 14.9735 10.1883C14.9446 10.1429 14.9172 10.0984 14.886 10.0547C14.8477 9.99998 14.8063 9.94763 14.7633 9.89529C14.7165 9.83826 14.668 9.78357 14.618 9.73044C14.5852 9.69607 14.5524 9.66248 14.518 9.62966C14.4696 9.58357 14.4204 9.53904 14.368 9.49607C14.3102 9.44841 14.2516 9.4031 14.1899 9.35935C14.1532 9.33357 14.1165 9.30857 14.0782 9.28357L18.0665 3.11716C20.861 4.79607 22.7118 7.79529 22.754 11.2297V11.2359L15.4204 11.6086Z" fill="#9356A0"/>
</svg>
