<svg width="25" height="25" viewBox="0 0 25 25" fill="none" xmlns="http://www.w3.org/2000/svg">
<path d="M11.7729 22.5155C12.0035 22.65 12.1188 22.7173 12.2815 22.7522C12.4079 22.7793 12.592 22.7793 12.7184 22.7522C12.8811 22.7173 12.9964 22.65 13.227 22.5155C15.2562 21.3317 20.8333 17.6129 20.8333 12.5V6.875C20.8333 6.29382 20.8333 6.00323 20.7214 5.78175C20.6222 5.5854 20.4674 5.42867 20.2721 5.32718C20.052 5.2127 19.7565 5.20921 19.1654 5.20222C16.07 5.16561 14.285 4.91001 12.5 3.125C10.715 4.91001 8.92995 5.16561 5.83454 5.20222C5.24343 5.20921 4.94787 5.2127 4.72772 5.32718C4.53255 5.42867 4.37766 5.5854 4.27849 5.78175C4.16663 6.00323 4.16663 6.29382 4.16663 6.875V12.5C4.16663 17.6129 9.74367 21.3317 11.7729 22.5155Z" stroke="#9356A0" stroke-width="2" stroke-linecap="round" stroke-linejoin="round"/>
</svg>
